<?xml version="1.0" encoding="UTF-8"?>
<svg id="Camada_2" data-name="Camada 2" xmlns="http://www.w3.org/2000/svg" viewBox="0 0 140.83 118.61">
  <defs>
    <style>
      .cls-1 {
        fill: #f8a91b;
      }

      .cls-2 {
        fill: #f62737;
      }
    </style>
  </defs>
  <g id="Camada_1-2" data-name="Camada 1">
    <path class="cls-1" d="M93.68,74.53l5,5c-2.42-2.46-3.97-4.04-5-5Z"/>
    <polygon class="cls-1" points="80.44 56.85 85.43 61.84 81.97 58.38 80.44 56.85"/>
    <path class="cls-2" d="M140.81,93.87h0c-.07-1.15-.35-2.24-.79-3.24-.02-.03-.03-.05-.04-.08-.44-.84-1.08-1.74-1.91-2.75l-.17-.17c-.05-.06-.11-.11-.17-.16l-17.27-17.28-34.06-34.06-6.04,6.03-7.31,7.31,1.1,1.1,2.24,2.24.08.07.59.59.11.11h0s.01.01.01.01h0s.12.14.12.14l.24.23.07.07.77.77,1.85,1.85.21.2c.13.13.25.25.38.37.06.06.12.13.19.19.05.04.09.08.12.12l.18.18s.06.05.08.08c.15.16.31.32.48.48.03.03.06.07.1.11.19.18,2.13,2.09,2.31,2.3.38.39.76.77,1.15,1.16h.01v.02h.01s.01.01.01.01h0s.01.01.01.01h0s.01.01.01.01l.07.08h0s.01,0,.01,0h0s0,.01,0,.01h0s.84.85.84.85l.04.04h.01s.01.01.01.01c.35.29.65.53,1.21,1.21l.14.15.02.02h.01s.05.06.05.06h.01s.01.02.01.02l.05.05h.01s.01.02.01.02l.22.22.02.02.05.05.02.02h.01s0,.01,0,.01h0s.01.01.01.01h0s.03.04.03.04l.04.03h0s.01.02.01.02h.01s.01,0,.01,0h0s.08.1.08.1c.05.06.11.12.16.17-.05-.06-.1-.11-.14-.16l.61.62.42.41.16.15c.32.31.7.69,1.08,1.08l.06.06h0s.01,0,.01,0h0s.41.43.41.43c-.04-.03-.07-.07-.11-.1.22.22.44.45.66.66l-.03.03,6.3,6.23.02.02c.37.38.76.76,1.13,1.13l.05.04.57.56c.41.39.96.93,1.45,1.45l.19.19.11.12.03.03h.01s.09.1.09.1l.02.02s0,.01.01.01l.08.08s.01.01.02.02l.03.03s.03.03.05.05c0,0,0,.01.01.01l.05.05s0,.01.01.01c0,0,0,.01.01.01,0,0,0,0,0,0l.05.05s.03.03.05.05c0,0,0,.01.01.01l.02.02s0,.01.01.01c0,0,0,.01.01.01,0,0,0,.01.01.01l.03.03s.01.01.02.02l.11.11s.01.01.02.02h.01s.01.02.02.03l.07.07s.01.01.02.02l.03.03h0s.01.02.02.03l.02.02s0,.01.01.01c0,0,0,0,.01,0h.01s.01.02.02.03h.01s.01.02.01.02t.02.02l.05.05.03.02h0s.02.02.02.02h0s.02.02.02.02l.03.04.03.02v.02s.05.03.05.03v.02s.03.01.03.01h0s.08.08.08.08c.37.35,1,.97,1.63,1.63l.08.09.39.4h.01s.09.09.09.09l.07.07h0s.01.02.01.02h0s.01.02.01.02t0,.01l.04.04s0,.01.01.01l.21.2s.04.04.05.05l.05.05.04.05.08.07.08.08c.05.05.09.09.13.12l.16.16s.14.14.27.28l.51.51.13.14h.01l1.26,1.26.04.05h.02s.06.08.06.08l.02.02.04.04c.36.36.73.73,1.09,1.09l.03.03h.02s.06.08.06.08l.09.08c.39.37,1.23,1.16,2.01,2.01l.09.09h0s.01.01.01.01h0s.01.02.02.03h.01s.01.02.02.03h.01s.01.02.02.03l.1.1c.29.28.57.57.85.85h.01s.17.18.17.18h.02v.02h.02v.02h.02s.02.04.02.04l.14.13c2.48,2.33,8.08,8.03,10.39,10.32h.01c.09.13.18.25.27.36h.01c.39.47.82.9,1.28,1.29h.01c1.63,1.35,3.73,2.16,6.01,2.16,5.22,0,9.46-4.24,9.46-9.46,0-.2,0-.4-.02-.6ZM92.33,68.78s-.07-.08-.1-.11l.22.21c-.06-.04-.1-.07-.12-.1ZM92.98,69.4l-.35-.35.22.21s.09.08.14.14h-.01ZM93.78,70.19h.01c.27.25.56.55.87.88l-.88-.88ZM95.86,72.27c.28.26,1.31,1.27,1.97,1.97l-1.97-1.97Z"/>
    <polygon class="cls-1" points="88.31 64.73 88.33 64.75 88.32 64.74 88.31 64.73"/>
    <polygon class="cls-1" points="85.47 61.89 85.56 61.98 85.55 61.97 85.47 61.89"/>
    <polygon class="cls-1" points="88.42 64.84 88.44 64.86 88.43 64.85 88.42 64.84"/>
    <path class="cls-1" d="M98.68,79.53l-7.12-7.12-21.17,21.18-13.63,13.62.33.33.18.18,5.76,5.76s.05.05.13.13l.34.34c.08.07.16.15.24.24l.96.96c.25.25.52.51.8.8l.58.58.71.71c1.82,1.82,4.78,1.82,6.61,0l31.06-31.06.27-.27.16-.16-3.02-3.02-3.19-3.2Z"/>
    <path class="cls-1" d="M17.7,72.9l-.16-.16-14.1,14.1c-.06.05-.12.1-.17.16l-.17.17c-.83,1.01-1.47,1.91-1.91,2.75-.01.03-.02.05-.04.08-.44,1-.72,2.09-.79,3.23H.36c0,.21-.02.41-.02.61,0,5.22,4.24,9.46,9.46,9.46,2.13,0,4.1-.71,5.68-1.9l1.89-1.89,2.61-2.61.7-.7.36-.36,4.97-4.96.09-.09,4.38-4.38.37-.36-12.96-12.96-.19-.19Z"/>
    <polygon class="cls-1" points="48.29 67.48 48.85 68.04 48.29 67.48 48.29 67.48"/>
    <polygon class="cls-1" points="66.1 15.54 64.37 13.82 64.38 13.83 66.1 15.54"/>
    <path class="cls-1" d="M140.42,35.7c0,8.17-2.75,15.7-7.38,21.72l-.02.02s-.05.06-.11.13c-.29.33-1.02,1.16-1.46,1.63-.08.08-.15.15-.21.21l-3.82,3.82-.02.02-4.23,4.23-.18.18-.04.04-.59-.58-.18-.19s-.04-.05-.06-.07c-.28-.3-.66-.7-1.21-1.27l-.25-.25-.53-.54-.26-.26c-.61-.63-1.38-1.39-2.33-2.33l-.95-.95-.57-.56-.57-.57-4.92-4.93-.88-.88,6.07-6.07,1.56-1.55h0c2.06-2.36,3.48-5.29,3.96-8.52.01-.11.03-.21.04-.32.09-.71.14-1.43.14-2.16-.02-.45-.06-.92-.12-1.38-.08-.67-.19-1.32-.31-1.91,0-.02-.01-.04-.01-.06-.24-1.16-.48-2.05-.54-2.24-.01-.03-.01-.04-.01-.04-2.31-6.45-8.45-11.07-15.7-11.07-2.08,0-4.08.38-5.92,1.08-1.84.71-3.52,1.73-4.99,3l-10.24,10.23-13.34,13.34h0s-21.21,21.21-21.21,21.21l-.18.18-.56-.56-5.45-5.44-7.37-7.38,2.42-2.42,12.09-12.09,3.14-3.14,3.74-3.74,5.81-5.82,5.6-5.59,9.53-9.53c.33-.33.63-.62.9-.89.96-.93,1.6-1.5,1.99-1.83.06-.05.11-.09.16-.13.1-.07.2-.15.3-.23.06-.05.09-.07.09-.07,1.95-1.48,4.07-2.91,6.3-4.14.27-.16.55-.31.82-.45.26-.14.51-.27.77-.41.51-.25,1.03-.5,1.55-.73.26-.12.53-.23.79-.34.35-.14.7-.28,1.06-.42.41-.16.83-.31,1.24-.44.52-.17,1.04-.32,1.55-.47.76-.22,1.53-.4,2.31-.54.26-.06.52-.1.78-.14,6.05-1.05,11.8-.33,16.44.94,3.14.85,5.76,1.95,7.63,2.94,0,0,3.41,1.75,5.46,3.68.01,0,.01.02.02.02,3.44,2.95,6.4,7.09,8.4,10.49.99,1.9,1.82,3.9,2.46,5.98h0c1.03,3.33,1.59,6.88,1.59,10.55Z"/>
    <path class="cls-2" d="M68.22,91.5l.04-.04-.17-.17-34.31-33.78-.2-.2c-.12-.12-.22-.22-.38-.38-.03-.04-.07-.08-.12-.12-.04-.05-.09-.1-.15-.16-.04-.04-.08-.07-.12-.11-.28-.26-.68-.65-3.95-3.89-.75-.74-1.51-1.48-2.25-2.21-1.04-1.03-2.04-2.08-2.95-3.18l-.02-.02c-.44-.53-.85-1.07-1.23-1.63-2.06-3-3.31-6.54-2.76-11.45,1.15-10.32,15.71-20.98,28.39-9.69.06.05.11.1.17.16l.1.1.06.05,1.31,1.31,1.09,1.1h.01s.01.01.01.01l.07.07,1.5,1.5.11.12,1.75,1.74.56.56,4.18-4.18.39-.38,1.23-1.22,1.07-1.07,1.74-1.75.5-.51,4.37-4.37h.01l-.42-.42h0s-1.75-1.75-1.75-1.75l.05.05-1.77-1.76h-.01s0-.01,0-.01l-.05-.05-.06-.07c-.1-.09-.2-.19-.29-.28-.93-.9-1.74-1.67-2.46-2.34s-1.34-1.24-1.89-1.73l-.85-.85C52.54,3.2,44.48,0,35.69,0c-3.66,0-7.19.55-10.52,1.59C14.03,5.03,5.21,13.78,1.68,24.88c-1.09,3.41-1.68,7.05-1.68,10.82,0,5.41,1.21,10.55,3.38,15.15.05.12.11.23.16.35,1.15,2.38,2.56,4.61,4.18,6.65h.01c.31.39.62.77.94,1.15.02.02.05.05.07.08.14.18.27.34.4.5l.02.02.02.03.57.56.1.1.02.03c.39.41.79.81,1.21,1.21l.06.05,8.7,8.71.02-.02,12.58,12.58.8.8,6.33,6.37,15.07,15.07,13.47-13.48.11-.11Z"/>
  </g>
</svg>