<?xml version="1.0" encoding="UTF-8"?>
<svg id="Camada_2" data-name="Camada 2" xmlns="http://www.w3.org/2000/svg" viewBox="0 0 575.98 826.81">
  <defs>
    <style>
      .cls-1 {
        fill: #92b735;
      }

      .cls-2 {
        fill: #fff;
        stroke: #92b735;
        stroke-miterlimit: 10;
        stroke-width: 1.5px;
      }

      .cls-3 {
        fill: #d6e2b2;
      }
    </style>
  </defs>
  <g id="Camada_2-2" data-name="Camada 2">
    <path class="cls-3" d="M561.02,347.79c2.02-9.89,3.66-19.63,4.99-28.91,14.87-94.51,8.7-147.08,8.7-147.08h0c-3.72-72.5-21.87-111.65-21.87-111.65,0,0-2.62,16.14-18.06,40.71-12.02,17.88-26.28,36.24-34.82,37.36-13.14,1.73-283.41,325.7-402.73,469.42-38.3,46.12-67.31,99.22-85.28,156.42-.85,2.68-1.33,4.31-1.33,4.53,0,1.69-6.31,46.88-6.91,51.22-.03.23-.05.45-.05.68v6.32l20.45-5.18s-13.84-112.58,97.41-153.92c1.54-.57,3.07-1.14,4.59-1.75,1.5-.6,3.96-1.53,7.27-2.61,11.01-3.6,22.44-5.75,33.99-6.53,10.86-.73,28.3-1.98,45.46-3.57,6.29-.5,13.24-1.21,20.7-2.13,7.68-.89,14.62-1.84,20.02-2.83h.02c26.17-4.16,55.95-10.66,83.79-19.99.03-.01.06-.02.09-.02,91.53-27.62,149.93-104.96,149.93-104.96,10.66-13.43,21.06-29.68,31.13-50.33,10.08-20.64,19.82-45.68,29.16-76.69.01-.01.01-.02.02-.03,5.68-15.6,10.02-32.21,13.33-48.42h0s0-.04.01-.06Z"/>
    <path class="cls-1" d="M517.62,124.02c-1.06-11.5-2.32-22.65-3.75-33.32-5.16-38.68-12.5-71.01-20.89-90.7,0,0-5.42,33.35-46.53,77.12-19.66,20.94-47.49,44.27-86.8,67.47-93.39,55.13-194.83,113.05-253.98,171.09h0s-69.82,60.3-81.66,162.66c0,0,0,0,0,0-5.25,38.14-2.25,86.57,13.83,161.34,1.46,6.82.42,13.93-2.98,20.02-12.8,22.94-43.18,87.19-32.68,164.61l1.48-.58,17.78-6.98s-13.48-79.26,41.33-133.19c54.82-53.92,146.08-59.85,146.96-59.85s89.19-15.4,143.12-53.03c53.92-37.63,98.66-64,142.22-173.34,27.5-69.04,31.02-182.15,22.56-273.31Z"/>
    <ellipse class="cls-2" cx="320.29" cy="205.51" rx="75.39" ry="59.94" transform="translate(-58.1 246.04) rotate(-38.8)"/>
    <polygon class="cls-2" points="242.17 300 355.06 300 277.72 626.22 163.5 626.22 242.17 300"/>
  </g>
</svg>