<?xml version="1.0" encoding="UTF-8"?>
<svg id="Camada_2" data-name="Camada 2" xmlns="http://www.w3.org/2000/svg" viewBox="0 0 1183.41 826.81">
  <defs>
    <style>
      .cls-1 {
        fill: #3c7a43;
      }

      .cls-2 {
        fill: none;
      }

      .cls-3 {
        fill: #92b735;
      }

      .cls-4 {
        fill: #fff;
        stroke: #92b735;
        stroke-miterlimit: 10;
        stroke-width: 1.5px;
      }

      .cls-5 {
        fill: #d6e2b2;
      }
    </style>
  </defs>
  <g id="Camada_2-2" data-name="Camada 2">
    <path class="cls-5" d="M890.6,347.79c2.02-9.89,3.66-19.63,4.99-28.91,14.87-94.51,8.7-147.08,8.7-147.08h0c-3.72-72.5-21.87-111.65-21.87-111.65,0,0-2.62,16.14-18.06,40.71-12.02,17.88-26.28,36.24-34.82,37.36-13.14,1.73-283.41,325.7-402.73,469.42-38.3,46.12-67.31,99.22-85.28,156.42-.85,2.68-1.33,4.31-1.33,4.53,0,1.69-6.31,46.88-6.91,51.22-.03.23-.05.45-.05.68v6.32l20.45-5.18s-13.84-112.58,97.41-153.92c1.54-.57,3.07-1.14,4.59-1.75,1.5-.6,3.96-1.53,7.27-2.61,11.01-3.6,22.44-5.75,33.99-6.53,10.86-.73,28.3-1.98,45.46-3.57,6.29-.5,13.24-1.21,20.7-2.13,7.68-.89,14.62-1.84,20.02-2.83h.02c26.17-4.16,55.95-10.66,83.79-19.99.03-.01.06-.02.09-.02,91.53-27.62,149.93-104.96,149.93-104.96,10.66-13.43,21.06-29.68,31.13-50.33,10.08-20.64,19.82-45.68,29.16-76.69.01-.01.01-.02.02-.03,5.68-15.6,10.02-32.21,13.33-48.42h0s0-.04.01-.06Z"/>
    <path class="cls-3" d="M847.2,124.02c-1.06-11.5-2.32-22.65-3.75-33.32-5.16-38.68-12.5-71.01-20.89-90.7,0,0-5.42,33.35-46.53,77.12-19.66,20.94-47.49,44.27-86.8,67.47-121.48,71.71-256.59,148.15-294.52,223.41-37.08,73.57-61.13,114.3-27.3,271.67,1.46,6.82.42,13.93-2.98,20.02-12.8,22.94-43.18,87.19-32.68,164.61l1.48-.58,17.78-6.98s-13.48-79.26,41.33-133.19c54.82-53.92,146.08-59.85,146.96-59.85s89.19-15.4,143.12-53.03c53.92-37.63,98.66-64,142.22-173.34,27.5-69.04,31.02-182.15,22.56-273.31Z"/>
    <path class="cls-1" d="M1024,351.71c-7.4,28.45-10.66,41.19-10.66,41.19h126.53l-25.5,107.85h-127.4l-39.41,165.92h-114.08l77.83-320.45c7.07-29.12,20.55-56.4,39.95-79.24s49.36-46.4,89.63-50.97c88.89-10.08,142.52-7.26,142.52-7.26l-25.17,106.45h-76.68c-13.6,0-27.01,3.79-38.3,11.37-8.41,5.64-16.3,13.76-19.26,25.14Z"/>
    <ellipse class="cls-4" cx="649.88" cy="205.51" rx="75.39" ry="59.94" transform="translate(14.63 452.56) rotate(-38.8)"/>
    <polygon class="cls-4" points="571.75 300 684.64 300 607.31 626.22 493.09 626.22 571.75 300"/>
    <path class="cls-1" d="M219.34,311.48c2.85-1.14,5.87-1.78,8.94-1.81h.04s138.2-1.07,138.2-1.07l23.78-105.11h-146.89c-64,0-97.33,30-97.33,30-99.7,81.78-66.3,151.85-52.96,176.52,13.33,24.67,94.67,73.56,113.33,90.89,18.67,17.33,11.93,46.07-7.04,49.04-18.96,2.96-174.52,1.78-174.52,1.78L0,661.93c124.36,0,166.52-1.14,180.82-1.93.17,0,38.31-1.72,60.92-12.28.05-.02.1-.05.15-.07,75.91-28.6,100.19-100.73,100.93-156.38.54-41.1-46.6-80.44-83.24-104.77-3.61-2.61-8.18-5.55-13.84-8.83-2.62-1.61-5.13-3.11-7.49-4.5-62.39-38.78-31.56-56.64-18.9-61.69Z"/>
    <line class="cls-2" x1="853.13" y1="92.65" x2="843.45" y2="90.7"/>
    <line class="cls-2" x1="776.03" y1="77.12" x2="735.5" y2="68.95"/>
  </g>
</svg>