<?xml version="1.0" encoding="UTF-8"?>
<svg id="Camada_2" data-name="Camada 2" xmlns="http://www.w3.org/2000/svg" viewBox="0 0 589.56 118.61">
  <defs>
    <style>
      .cls-1 {
        fill: rgba(202, 34, 54, .24);
      }

      .cls-1, .cls-2, .cls-3, .cls-4, .cls-5, .cls-6, .cls-7, .cls-8, .cls-9, .cls-10, .cls-11, .cls-12, .cls-13, .cls-14, .cls-15, .cls-16, .cls-17 {
        fill-rule: evenodd;
      }

      .cls-2, .cls-18 {
        fill: #f62737;
      }

      .cls-3 {
        fill: #f62e3d;
      }

      .cls-19, .cls-15 {
        fill: rgba(246, 39, 55, .99);
      }

      .cls-4 {
        fill: rgba(184, 32, 44, .29);
      }

      .cls-5 {
        fill: #f42d3c;
      }

      .cls-6 {
        fill: rgba(182, 24, 35, .35);
      }

      .cls-7 {
        fill: #f52d3d;
      }

      .cls-8 {
        fill: rgba(188, 25, 35, .34);
      }

      .cls-9 {
        fill: #f52d3e;
      }

      .cls-20 {
        fill: none;
      }

      .cls-10 {
        fill: rgba(211, 42, 48, .23);
      }

      .cls-11 {
        fill: #f52e3e;
      }

      .cls-12 {
        fill: rgba(182, 18, 30, .3);
      }

      .cls-13 {
        fill: #f52d3c;
      }

      .cls-14 {
        fill: #f62e3e;
      }

      .cls-21 {
        fill: #f8a91b;
      }

      .cls-16 {
        fill: #f62d3d;
      }

      .cls-17 {
        fill: rgba(182, 29, 39, .27);
      }
    </style>
  </defs>
  <g id="Camada_1-2" data-name="Camada 1">
    <path class="cls-12" d="M164.43,58.75c.22.37.43.74.65,1.11-.22-.37-.43-.74-.65-1.11Z"/>
    <g>
      <path class="cls-2" d="M560.92,38.4h-10.71c-.92,0-1.67.75-1.67,1.67v9.78s.01,0,.01,0c0,5.51.05,12.79-.01,20.74v2.27c0,1.47-.26,2.88-.75,4.18h0c-.35,1.05-1.01,2.46-2.34,3.85-.14.13-.27.27-.4.41-.1.09-.2.18-.3.27-.1.09-.2.18-.3.27-.04.04-.08.07-.13.1-.11.12-.21.21-.33.28-.16.12-.32.24-.48.36-.16.11-.32.22-.49.33-.17.11-.34.21-.51.31-.15.1-.3.18-.46.26-.21.11-.43.21-.66.3-.34.17-.7.3-1.07.42-.24.08-.47.15-.71.21-.2.05-.39.1-.59.14-.2.05-.39.08-.59.1-.18.04-.37.06-.55.07-.03,0-.06,0-.09,0-.18.02-.36.04-.54.04-.13.01-.27.02-.41.01-.07,0-.15,0-.23,0-6.59,0-11.94-5.34-11.94-11.93v-32.8c0-.92-.75-1.67-1.67-1.67h-10.66c-.92,0-1.67.75-1.67,1.67v27.78c.02,1.63.03,2.88.04,3.57,0,.03,0,.06,0,.09-.02.35-.03.71-.04,1.06v.3c0,10,5.69,18.69,14,23.01,3.58,1.87,7.64,2.92,11.94,2.92s8.36-1.05,11.93-2.92c8.31-4.32,14-13.01,14-23.01,0-.57-.02-1.13-.06-1.69.06-1.87.08-4.01.08-6.53,0-3.34-.03-7.34-.03-12.23,0-3.72.06-6.46.06-8.47v-3.88c0-.92-.75-1.67-1.67-1.67Z"/>
      <path class="cls-19" d="M388.41,95.08c-18.69,11.31-43.43.91-48.14-19.92-4.28-18.9,9.82-38.27,30.02-39.01,9.1-.33,18.39,3.09,24.58,9.56.26.26.51.53.76.81.02.02.04.04.05.07.88,1.13,1.95,3.15.42,5.06-.08.11-.18.21-.28.32-2.36,2.59-6.04,6.11-6.7,6.29-2.88.79-4.51-2.76-6.52-4.21-17.67-12.83-34.85,7.04-25.09,23.77,4.91,8.41,16.08,10.31,24.25,4.98,2.2-1.43,5.1-5.92,7.48-5.69,1.09.1,8.15,6.77,8.44,7.78.83,2.88-6.82,8.7-9.27,10.19Z"/>
      <path class="cls-14" d="M401.55,61.15c.39.65,3.51,5.79,1.83,9.28-.54,1.12-.23,1.17-.5,2.35-.03.14-1.24,1.36-1.32-1.26,0-.98-.06-.93-.57-1.75-.31-1.18-.29-1.14-.71-2.28-.21-1.28-.68-1.29-.07-2.41,1.01-1.84.82-1.86,1.34-3.94h0Z"/>
      <path class="cls-3" d="M403.91,63.58c.85.9.9.81.96.89.68.84,1.18.75,1.38.91l.15.44c1.78,1.9,1.81,1.84,1.96,2.01.11.29.12.25.68,1.05.47.45.59.22,1.05.66-.35.41-.7.82-1.05,1.24l-.53-.24c-.55-.55-.58-.48-1.04-1.15l-.18-1.07c-.15-.11.13-.44-.02-.55-.06-.04-.31.23-1.14,0-.16-.05-.3-.12-.46-.17-.23-.21-1.71-.8-1.78-4h0Z"/>
      <path class="cls-7" d="M447.51,64.55c.16.05.15,0,2.12.33.09.47.29.49-.33,2.59-.99,1.1-.54,1.46-1.77,2.26-.14.09-.36-.02-.51.07-.08-1.17-.12-1.12-.03-2.3.19-1.5.11-1.48.52-2.96h0Z"/>
      <path class="cls-11" d="M280.97,60.5c.47.82.6.75.61,1.73l-.07.6c-.02.56-.03,1.11-.05,1.67l-.37.2c-.03-.05-.89-.2-.87-1.3.02-1.37-.54-1.12-.54-1.22,0-.17.39.04.52-.08.67-.62.28-.78.77-1.61h0Z"/>
      <path class="cls-14" d="M447.16,68.01c.01-.22.14-2.04,1.68-2.18.93-.08.51,1.97.48,2.15-.21,1.02-.62.39-2.16.04h0Z"/>
      <path class="cls-7" d="M406.86,65.86l.62.15c.46.67.49.6,1.04,1.15-.07.44-.15.89-.22,1.33-1.42-2-1.16-2.09-1.43-2.63h0Z"/>
      <path class="cls-16" d="M402,66.59c1.16.02,1.16,0,1.26.02,1.44.24-.75,2.03-1.37.62-.09-.2.2-.44.12-.64h0Z"/>
      <path class="cls-9" d="M402.43,67.26c.31-.16.33-.67.64-.83,1.52-.77.43,2.34-.56,1.44-.15-.14.07-.47-.08-.61Z"/>
      <path class="cls-7" d="M451.25,65.46c.03.06,1.01.16.58,1.71-.12.42-.13.38-.71,1.72.2-1.71.2-1.65.13-3.43Z"/>
      <path class="cls-7" d="M408.02,67.08c-.73.51-.69.48-1.45.95.5-1.01-.26-2.13.77-1.58.41.22.23.39.67.63h0Z"/>
      <path class="cls-14" d="M402.71,66.01c.05.19.31.27.36.46.05.18.02.39-.09.54-.08.1-.32-.03-.38.09-.16.32.03.78-.19,1.06-.17.21-.62-.05-.79.16.4-.65.38-.59.4-.65.13-.34-.05-.77.1-1.11,0,0,.53-.52.58-.57h0Z"/>
      <path class="cls-7" d="M405.8,66.1c1.14.66.9.9.6,2.16l-.15-.44c-.15-.57-.3-1.14-.45-1.71h0Z"/>
      <path class="cls-13" d="M406.14,66.65c.39,0,.78,0,1.17-.01l.18,1.07-.62-.15c-.05-.03-.02,0-.72-.91Z"/>
      <path class="cls-7" d="M451.12,66.02c-.21,1.3-.29,1.25-1.02,2.31.03-1.35.04-1.4,1.02-2.31Z"/>
      <path class="cls-5" d="M445.6,66.6c-.23,1.08-.55.81-1.18,1.17.11-.14-.06-.4.05-.54.1-.12.35,0,.46-.11.22-.23-.1-.32.13-.5.24-.19.28.18.55-.02h0Z"/>
      <path class="cls-9" d="M446.99,65.99c-.08,1.18-.05,1.13.03,2.3l-.4.08-.1-.61c.09-.94.11-.88.47-1.76h0Z"/>
      <path class="cls-7" d="M405.82,65.79c.07,1.09.28,1.05.14,2.15-.04.32.08.28.04.61-.44-1.37-.26-1.35-.18-2.76h0Z"/>
      <path class="cls-13" d="M405.68,66.8c.16.05.3.12.46.17.83.24,1.08-.03,1.14,0,.15.11-.13.44.02.55-.39,0-.78,0-1.17.01-.15-.25-.3-.49-.45-.74h0Z"/>
      <path class="cls-11" d="M446.92,66.06c.28,1.59.35,1.58.3,1.71-.12.27-.6.25-.72.53.14-.75.28-1.49.42-2.24Z"/>
      <path class="cls-11" d="M444.58,65.79c0,.92.01,1.85.02,2.77-.34-.79-.27-.77-.34-1.6.11-.39.22-.78.33-1.17h0Z"/>
      <path class="cls-4" d="M395.82,65.73c.18.96.35,1.92.53,2.88-.43-1.43-.43-1.4-.53-2.88Z"/>
      <path class="cls-1" d="M275.67,67.41c.02.78.04,1.55.06,2.33-.42-1.13-.44-1.15-.06-2.33Z"/>
      <path class="cls-14" d="M446.35,66.28c.18.39.37.78.55,1.18v.61c-.43-.89-.39-.85-.55-1.79h0Z"/>
      <path class="cls-9" d="M400.28,66.04c.42,1.13.41,1.09.71,2.28-.18-.37-.35-.74-.53-1.11-.06-.39-.12-.78-.19-1.17h0Z"/>
      <path class="cls-11" d="M447.7,67.14v.56c-.47-.48-.86-.47-.41-.96.27-.29.12.12.41.4h0Z"/>
      <path class="cls-10" d="M535.37,97.98c.58.02,1.15.03,1.73.05-.88.25-.87.24-1.73-.05Z"/>
      <path class="cls-7" d="M408.36,66.65c.13.15.51-.14.68,1.05-.56-.79-.57-.76-.68-1.05Z"/>
      <path class="cls-8" d="M396.24,66.31l-.17,1.73c-.11-.88-.11-.86.17-1.73Z"/>
      <path class="cls-5" d="M447.63,66.55c-.04,1.05,0,1.05-.04,1.13-.05.12-.32,0-.37.11.14-.42.28-.83.42-1.25h0Z"/>
      <path class="cls-6" d="M456.59,66.32c.08.88.08.84-.2,1.72l.2-1.72Z"/>
      <path class="cls-17" d="M335.7,74.91c-.15.39-.29.79-.44,1.18.15-.39.29-.79.44-1.18Z"/>
      <path class="cls-9" d="M510.67,50.28v17.57c-.04-4.4-.07-11.53,0-17.57Z"/>
      <path class="cls-9" d="M541.39,83.79c-.34.17-.7.3-1.07.42.35-.12.71-.26,1.07-.42Z"/>
      <path class="cls-9" d="M544.32,81.95c-.11.1-.22.19-.33.28-.16.12-.32.24-.48.36-.16.11-.32.22-.49.33-.17.11-.34.21-.51.31-.15.09-.3.18-.46.26-.21.11-.43.21-.66.3.35-.16.7-.34,1.06-.55.71-.41,1.33-.84,1.87-1.29Z"/>
      <path class="cls-9" d="M548.54,70.6v2.27c0-.26-.01-.52-.03-.77,0-.02.01-.05.02-.07,0-.48.01-.96.01-1.43Z"/>
      <path class="cls-15" d="M305.9,35.67c-17.4,0-31.51,14.11-31.51,31.51s14.11,31.5,31.51,31.5,31.5-14.1,31.5-31.5-14.11-31.51-31.5-31.51ZM307.5,84.65c-.19.03-.38.04-.57.05-.16.01-.33.03-.5.04-.16.01-.33.01-.49.01-.25,0-.5-.01-.75-.02-.01,0-.02,0-.03,0-.57-.04-1.14-.1-1.7-.19-.29-.04-.58-.1-.87-.17-.19-.04-.38-.09-.57-.15-.05,0-.09-.02-.14-.03-.02-.01-.04-.02-.06-.02s-.05-.01-.08-.02c-7.15-1.9-12.43-8.43-12.43-16.18,0-3.14.87-6.08,2.37-8.59.43-.73.92-1.42,1.46-2.07,0,0,0-.01.01-.01.24-.3.5-.58.77-.86.01-.03.04-.05.06-.07,2.06-2.15,4.68-3.74,7.62-4.55,1.42-.4,2.92-.61,4.47-.61,2.81,0,5.45.69,7.77,1.91.03.01.06.03.09.05.49.25.96.54,1.41.83.04.03.07.05.1.07,4.46,3.01,7.39,8.11,7.39,13.9,0,5.46-2.62,10.32-6.67,13.33-.18.14-.36.28-.55.41-.2.15-.4.28-.6.41-.22.15-.44.28-.66.41-.38.22-.77.42-1.17.61-.29.14-.58.27-.88.38-.41.17-.82.32-1.24.45-.28.09-.57.18-.86.24-.88.22-1.78.37-2.7.44Z"/>
      <path class="cls-15" d="M426.6,35.52c-17.4,0-31.51,14.11-31.51,31.51s14.11,31.5,31.51,31.5,31.5-14.1,31.5-31.5-14.11-31.51-31.5-31.51ZM428.2,84.5c-.19.03-.38.04-.57.05-.16.01-.33.03-.5.04-.16.01-.33.01-.49.01-.25,0-.5-.01-.75-.02-.01,0-.02,0-.03,0-.57-.04-1.14-.1-1.7-.19-.29-.04-.58-.1-.87-.17-.19-.04-.38-.09-.57-.15-.05,0-.09-.02-.14-.03-.02-.01-.04-.02-.06-.02s-.05-.01-.08-.02c-7.15-1.9-12.43-8.43-12.43-16.18,0-3.14.87-6.08,2.37-8.59.43-.73.92-1.42,1.46-2.07,0,0,0-.01.01-.01.24-.3.5-.58.77-.86.01-.03.04-.05.06-.07,2.06-2.15,4.68-3.74,7.62-4.55,1.42-.4,2.92-.61,4.47-.61,2.81,0,5.45.69,7.77,1.91.03.01.06.03.09.05.49.25.96.54,1.41.83.04.03.07.05.1.07,4.46,3.01,7.39,8.11,7.39,13.9,0,5.46-2.62,10.32-6.67,13.33-.18.14-.36.28-.55.41-.2.15-.4.28-.6.41-.22.15-.44.28-.66.41-.38.22-.77.42-1.17.61-.29.14-.58.27-.88.38-.41.17-.82.32-1.24.45-.28.09-.57.18-.86.24-.88.22-1.78.37-2.7.44Z"/>
      <path class="cls-18" d="M276.22,84.75c-.17-1.44-2.03-1.71-3.11-1.8,0,0,0,0,0,0-1.32-.14-1.89-.95-2.14-1.56-.68-1.79-.08-5.6-.34-18.01-.19-9.2-5.55-18.14-13.64-22.68-2.05-1.16-4.26-2.03-6.62-2.55-1.31-.29-9.46-2.09-16.67,1.81-.92.49-.82-.65-.81-.74.08-.81.25-15.8-.03-18.21,0-.1-.03-.19-.04-.24-.49-1.88-1.58-1.94-9.52-1.78-3.31.07-4.54-.42-4.53,2.86.02,18.95.02,27.36-.14,31.36t0,.02c.01.12.01.24.01.36v.36c.08,4.26-.75,8.47-2.4,12.33-.11.27-.22.52-.33.78-.11.24-.31.65-.42.9l-.45.88c-.17.33-.35.65-.54.96-.21.41-.45.79-.7,1.18-.02.03-.04.06-.06.08-.11.19-.22.36-.35.54-.12.17-.25.35-.36.52-.22.34-.61.86-.85,1.17-.13.17-.27.35-.4.51-.22.27-.44.53-.67.79-.21.27-.43.52-.66.77h-.02c-.47.51-.96,1.01-1.47,1.49-.08.07-.15.14-.23.21-.26.24-.52.48-.79.72-.36.3-.73.6-1.1.89-.3.24-.62.48-.95.72-.24.17-.48.34-.74.5-.29.21-.6.4-.9.59-.07.05-.13.08-.2.12-.25.15-.49.3-.74.44-.28.16-.55.31-.83.47-.65.34-1.31.67-1.98.97-.76.33-1.56.64-2.34.93-.06.02-.14.04-.22.07-.19.07-.38.13-.57.18-.03.02-.06.03-.09.03-.42.18-.84.33-1.28.45-.22.08-.45.15-.69.21-.52.14-1.05.26-1.59.33-.66.13-1.33.2-2.01.22-.73.05-1.46.04-2.21-.02-8.49-.66-15.34-7.66-15.84-16.16-.09-1.57.02-3.09.32-4.55,1.6-7.76,8.4-13.62,16.61-13.75.02-.01.05-.01.07,0,.07-.01.15-.01.22-.01,2.67,0,5.19.61,7.45,1.69.11.05.22.1.32.16.17.08.33.17.49.27.21.13.42.26.64.4.19.13.39.25.58.4.18.13.36.26.53.4.38.29.76.59,1.11.91l.02.02s.02.02.05.04c.02.03.05.05.09.08.26.2.82.49,1.38-.03.02-.02.04-.04.07-.06.02-.01.04-.04.06-.05l1.77-1.65,2.6-2.41.07-.07.99-.93.1-.08,1.6-1.49.02-.02.04-.05.04-.04c.53-.63.78-1.18.78-1.7,0-1.56-2.22-2.82-5.56-4.94-3.74-2.38-9.44-4-15.59-3.89-5.9.1-12.22,1.8-17.63,5.94-.9.68-1.77,1.44-2.61,2.26-7.54,7.39-9.5,16.14-9.27,23.34.2,6.42,2.14,11.61,3.42,13.52.21.37.43.74.65,1.1.15.34,2.21,3.4,4.76,6.07,2.45,2.37,5.3,4.32,8.44,5.74.11.05.21.1.32.15.5.24,1,.44,1.54.62.02.01.03.02.05.02.87.32,1.75.61,2.65.84.15.04.31.08.47.12.34.09.68.17,1.02.25.33.08.67.15,1,.21.41.07.82.14,1.23.19,0,0,.03,0,.08.01.21.03.77.1,1.51.18t.02,0s.09.01.13.01c.25.02.52.04.79.06.09,0,.18.01.27.01.08.01.15.02.23.02h.1s.08.01.12,0c.08.01.16.01.24.01.03,0,.05,0,.08,0h.01s.06.01.08.01c.53.01,1.05.01,1.55-.01.33,0,.67-.02,1-.05,1.76-.1,3.49-.36,5.16-.75.26-.06.51-.12.76-.19.31-.08.62-.17.93-.26.05,0,.1-.03.15-.04,1.04-.26,1.98-.56,2.61-.91.02-.01.03-.02.05-.03,1.1-.44,2.16-.95,3.18-1.51.35-.19.68-.39,1.02-.59.06-.03.12-.07.18-.11.43-.26.85-.54,1.27-.82.25-.16.49-.33.73-.51.01,0,.01-.01.02-.01.24-.18.48-.35.71-.53.24-.19.47-.37.7-.56.23-.18.45-.37.68-.57.22-.19.44-.39.66-.59.22-.2.43-.4.64-.6.45-.45.9-.91,1.34-1.4.23-.25.45-.5.67-.77.34-.38.65-.77.96-1.17.11-.14.22-.29.33-.44.82-1.12,1.58-2.32,2.25-3.62.06-.12.58-.76.92-.78v7.27c-.01.99-.02,2,0,2.96v5.65c3.19-.03,6.79-.12,6.79-.12h7.37v-3.89c.05-1.7.04-3.97,0-6.55v-23.96c0-4.52,2.48-8.45,6.14-10.51,1.75-1,3.78-1.57,5.94-1.57,6.39,0,11.63,4.96,12.05,11.26v18.88s-.05.61,0,1.57c.05,1.19.24,2.92.83,4.76.7,2.19,1.98,4.53,4.24,6.27h0c.1.09.22.18.36.28.3.23.62.43.96.62.11.07.22.13.34.19,3.96,2.21,12.13,4.98,12.56.75,0-.09.05-9.53-.05-10.35Z"/>
      <path class="cls-15" d="M501.42,90.27l-.02.02c-.16.18-1.12,1.29-2.11,2.22-.01.01-.02.01-.03.02-8.54,7.4-21.64,7.03-33.22,1.05-5.89-3.04-7.81-4.72-7.81-6.22,0-.4.14-.79.38-1.19h.01c.1-.17.22-.34.36-.52l2.88-4.16c.4-.62.79-1.21,1.19-1.71l.02-.02c.29-.37.59-.69.89-.95l.02-.02c.98-.83,2.06-1.02,3.39.07,6.31,5.16,15.94,7.2,19.68,5.9,4.45-1.8,3.65-4.92,2.69-6.72-.66-1.04-1.29-1.53-1.67-1.75-4.92-2.27-14.12-3.86-20.58-8-.01,0-.02-.01-.03-.02-2.91-1.39-4.49-3.92-5.35-6.42-.06-.19-.12-.37-.18-.56-.05-.15-.09-.31-.13-.46l-.28-1.18v-.02c-.27-1.34-.36-2.56-.38-3.46-.01-.47-.01-.85,0-1.11,0-.1.01-.18.01-.24.01-.1.01-.15.01-.15.07-1.51.36-3.28,1.07-5.08,3.87-9.68,13.08-11.83,18.78-12.06,3.66-.35,7.92.6,11.62,1.83.15.04.3.09.44.13,2.56.87,4.84,1.85,6.43,2.59.04.03.08.04.12.06.15.07.3.15.44.21.29.14.54.26.77.37.33.17.59.3.77.4.18.09.27.14.27.14.78.44,1.47.94,1.91,1.52.02.03.04.06.06.09.02.03.05.06.07.1.06.11.13.25.18.42.1.29.15.68.03,1.12,0,0,0,.01-.01.02,0,.03-.01.06-.02.09-.01.02-.01.03-.02.04,0,.01,0,.02-.01.03-.14.44-.35,1.06-.62,1.78-1.27,3.42-3.86,9-6.71,7.36-.19-.1-.37-.19-.56-.29,0,0-.02-.01-.07-.04,0,0,0-.01-.02-.01-.03-.02-.06-.05-.11-.07-.12-.08-.3-.19-.53-.32-.01-.01-.02-.01-.03-.02-2.32-1.36-9.49-5.23-15.06-4.42-.02.01-.03.01-.05.01-.19.03-.37.06-.53.1-.12.02-.24.05-.36.08-.14.03-.28.07-.42.12h-.01c-.07.02-.15.05-.22.07-.13.04-.24.07-.33.11-.04.02-.07.03-.11.04-.07.03-.12.05-.18.08h-.01c-1.14.45-1.89.96-2.35,1.49h-.01c-1.71,1.94.27,4.11.53,4.38t0,.02h.01c5.72,4.38,27.59,4.79,28.93,20.65.5,6.03-2.4,10.59-3.83,12.46Z"/>
      <path class="cls-18" d="M589.55,93.81c0-.33,0-.68,0-1.03s0-.7,0-1.06c-.02-1.16-.06-2.37-.05-3.53.01-3.02.24-3.92-2.78-4.15-3.41-.26-2.79-2.14-2.79-19.5V20.56c0-.92-.75-1.67-1.67-1.67h-10.72c-.92,0-1.67.75-1.67,1.67v17.04c-.04,6.83-.07,14.75-.05,22.15h-.01v.39c.02,7.43.08,14.32.19,19.02l.03,3.28c-.04,2.38.46,10.22,8.23,13.8.01,0,.01.01.02.01.95.52,2.06.9,3.13,1.16.01.01.02.01.03.01,1.52.37,2.97.53,3.84.61.13,0,.26.01.36.02.08,0,.13,0,.19,0,.06,0,.11,0,.16,0,.06,0,.11,0,.11,0,.02,0,.04,0,.07,0,.11,0,.22,0,.32,0,.08,0,.16,0,.23-.01.09,0,.17-.02.26-.03.08-.01.15-.02.23-.04.07-.01.14-.03.21-.05.07-.02.15-.04.21-.06.06-.02.12-.04.17-.06.07-.03.13-.05.2-.08.05-.02.1-.05.15-.07.06-.03.12-.07.17-.1.04-.03.08-.05.12-.08.05-.04.1-.08.15-.12.03-.03.07-.06.1-.09.04-.04.09-.08.13-.13.03-.03.06-.06.09-.1.04-.04.07-.09.1-.13.03-.03.05-.07.07-.1.03-.04.05-.09.08-.13.02-.04.04-.07.06-.11.02-.04.04-.08.06-.13.02-.04.04-.08.05-.12.01-.04.03-.07.04-.11.02-.04.03-.09.04-.13,0-.03.02-.06.02-.09.01-.05.03-.1.04-.14,0-.02,0-.04.01-.06.01-.05.02-.11.03-.16,0,0,0-.01,0-.02.02-.13.03-.25.03-.35.02-.22,0-.37,0-.37v-1.1Z"/>
    </g>
    <g>
      <path class="cls-18" d="M93.68,74.53l5,5c-2.42-2.46-3.97-4.04-5-5Z"/>
      <polygon class="cls-18" points="80.44 56.85 85.43 61.84 81.97 58.38 80.44 56.85"/>
      <path class="cls-18" d="M140.81,93.87h0c-.07-1.15-.35-2.24-.79-3.24-.02-.03-.03-.05-.04-.08-.44-.84-1.08-1.74-1.91-2.75l-.17-.17c-.05-.06-.11-.11-.17-.16l-17.27-17.28-34.06-34.06-6.04,6.03-7.31,7.31,1.1,1.1,2.24,2.24.08.07.59.59.11.11h0s.01.01.01.01h0s.12.14.12.14l.24.23.07.07.77.77,1.85,1.85.21.2c.13.13.25.25.38.37.06.06.12.13.19.19.05.04.09.08.12.12l.18.18s.06.05.08.08c.15.16.31.32.48.48.03.03.06.07.1.11.19.18,2.13,2.09,2.31,2.3.38.39.76.77,1.15,1.16h.01v.02h.01s.01.01.01.01h0s.01.01.01.01h0s.01.01.01.01l.07.08h0s.01,0,.01,0h0s0,.01,0,.01h0s.84.85.84.85l.04.04h.01s.01.01.01.01c.35.29.65.53,1.21,1.21l.14.15.02.02h.01s.05.06.05.06h.01s.01.02.01.02l.05.05h.01s.01.02.01.02l.22.22.02.02.05.05.02.02h.01s0,.01,0,.01h0s.01.01.01.01h0s.03.04.03.04l.04.03h0s.01.02.01.02h.01s.01,0,.01,0h0s.08.1.08.1c.05.06.11.12.16.17-.05-.06-.1-.11-.14-.16l.61.62.42.41.16.15c.32.31.7.69,1.08,1.08l.06.06h0s.01,0,.01,0h0s.41.43.41.43c-.04-.03-.07-.07-.11-.1.22.22.44.45.66.66l-.03.03,6.3,6.23.02.02c.37.38.76.76,1.13,1.13l.05.04.57.56c.41.39.96.93,1.45,1.45l.19.19.11.12.03.03h.01s.09.1.09.1l.02.02s0,.01.01.01l.08.08s.01.01.02.02l.03.03s.03.03.05.05c0,0,0,.01.01.01l.05.05s0,.01.01.01c0,0,0,.01.01.01,0,0,0,0,0,0l.05.05s.03.03.05.05c0,0,0,.01.01.01l.02.02s0,.01.01.01c0,0,0,.01.01.01,0,0,0,.01.01.01l.03.03s.01.01.02.02l.11.11s.01.01.02.02h.01s.01.02.02.03l.07.07s.01.01.02.02l.03.03h0s.01.02.02.03l.02.02s0,.01.01.01c0,0,0,0,.01,0h.01s.01.02.02.03h.01s.01.02.01.02t.02.02l.05.05.03.02h0s.02.02.02.02h0s.02.02.02.02l.03.04.03.02v.02s.05.03.05.03v.02s.03.01.03.01h0s.08.08.08.08c.37.35,1,.97,1.63,1.63l.08.09.39.4h.01s.09.09.09.09l.07.07h0s.01.02.01.02h0s.01.02.01.02t0,.01l.04.04s0,.01.01.01l.21.2s.04.04.05.05l.05.05.04.05.08.07.08.08c.05.05.09.09.13.12l.16.16s.14.14.27.28l.51.51.13.14h.01l1.26,1.26.04.05h.02s.06.08.06.08l.02.02.04.04c.36.36.73.73,1.09,1.09l.03.03h.02s.06.08.06.08l.09.08c.39.37,1.23,1.16,2.01,2.01l.09.09h0s.01.01.01.01h0s.01.02.02.03h.01s.01.02.02.03h.01s.01.02.02.03l.1.1c.29.28.57.57.85.85h.01s.17.18.17.18h.02v.02h.02v.02h.02s.02.04.02.04l.14.13c2.48,2.33,8.08,8.03,10.39,10.32h.01c.09.13.18.25.27.36h.01c.39.47.82.9,1.28,1.29h.01c1.63,1.35,3.73,2.16,6.01,2.16,5.22,0,9.46-4.24,9.46-9.46,0-.2,0-.4-.02-.6ZM92.33,68.78s-.07-.08-.1-.11l.22.21c-.06-.04-.1-.07-.12-.1ZM92.98,69.4l-.35-.35.22.21s.09.08.14.14h-.01ZM93.78,70.19h.01c.27.25.56.55.87.88l-.88-.88ZM95.86,72.27c.28.26,1.31,1.27,1.97,1.97l-1.97-1.97Z"/>
      <polygon class="cls-18" points="88.31 64.73 88.33 64.75 88.32 64.74 88.31 64.73"/>
      <polygon class="cls-18" points="85.47 61.89 85.56 61.98 85.55 61.97 85.47 61.89"/>
      <polygon class="cls-18" points="88.42 64.84 88.44 64.86 88.43 64.85 88.42 64.84"/>
      <path class="cls-21" d="M98.68,79.53l-7.12-7.12-21.17,21.18-13.63,13.62.33.33.18.18,5.76,5.76s.05.05.13.13l.34.34c.08.07.16.15.24.24l.96.96c.25.25.52.51.8.8l.58.58c.23.23.47.47.71.71,1.82,1.82,4.78,1.82,6.61,0h0s31.06-31.06,31.06-31.06l.27-.27.16-.16-3.02-3.02-3.19-3.2Z"/>
      <path class="cls-21" d="M30.85,86.05l-.37.36-4.38,4.38-.09.09-4.97,4.96-.36.36-.7.7-2.61,2.61-1.89,1.89c-1.58,1.19-3.55,1.9-5.68,1.9-5.22,0-9.46-4.24-9.46-9.46,0-.2.01-.4.02-.6H.36c.07-1.15.35-2.24.79-3.24.02-.03.03-.05.04-.08.44-.84,1.08-1.74,1.91-2.75l.17-.17c.05-.06.11-.11.17-.16l14.1-14.1.16.16.19.19,12.96,12.96Z"/>
      <polyline class="cls-20" points="48.85 68.04 48.29 67.48 42.84 62.04 35.47 54.66"/>
      <path class="cls-20" d="M68.27,17.71h-.01l-.41-.41h0s-3.47-3.47-3.47-3.47l-.12-.13c-.1-.09-.2-.19-.29-.28"/>
      <line class="cls-20" x1="67.85" y1="17.29" x2="64.38" y2="13.83"/>
      <line class="cls-20" x1="54.78" y1="31.19" x2="54" y2="31.97"/>
      <line class="cls-20" x1="55.97" y1="32.38" x2="54.78" y2="31.19"/>
      <path class="cls-20" d="M97.63,1.24c-.77.16-1.54.33-2.31.54.76-.22,1.53-.4,2.31-.54Z"/>
      <polyline class="cls-20" points="123.17 67.48 122.99 67.66 122.95 67.7"/>
      <polyline class="cls-20" points="122.18 66.93 122.36 67.12 122.95 67.7"/>
      <path class="cls-21" d="M138.83,25.15h0c-.64-2.08-1.47-4.08-2.46-5.98-2.61-4.43-6.84-10.13-11.66-12.79-.15-.08-.06-.21-1.74-1.14-1.89-1.05-4.7-2.28-8.11-3.2-4.64-1.27-10.39-1.99-16.44-.94-.26.04-.52.08-.78.14-.77.16-1.54.33-2.31.54-.51.15-1.03.3-1.55.47-.41.13-.83.28-1.24.44-.36.14-.71.28-1.06.42-.26.11-.53.22-.79.34-.52.23-1.04.48-1.55.73-.26.14-.51.27-.77.41-.27.14-.55.29-.82.45-2.75,1.52-5.32,3.33-7.63,5.18l-2.36,2.36-9.28,9.28-5.6,5.59-5.81,5.82-3.74,3.74-3.14,3.14-12.09,12.09-2.42,2.42,7.37,7.38,5.45,5.44.56.56.18-.18,21.21-21.2h0s13.34-13.35,13.34-13.35l10.24-10.23c1.47-1.27,3.15-2.29,4.99-3,1.84-.7,3.84-1.08,5.92-1.08,7.25,0,13.39,4.62,15.7,11.07,0,0,0,.01.01.04.06.19.3,1.08.54,2.24,0,.02.01.04.01.06.12.59.23,1.24.31,1.91.06.46.1.93.12,1.38,0,.73-.05,1.45-.14,2.16-.01.11-.03.21-.04.32-.48,3.23-1.9,6.16-3.96,8.51h0s-1.56,1.56-1.56,1.56l-6.07,6.07.88.88,4.92,4.93.57.57.57.56.95.95c.95.94,1.72,1.7,2.33,2.33l.26.26.53.54.25.25c.55.57.93.97,1.21,1.27.02.02.04.05.06.07l.18.19.59.58.04-.04.18-.18,4.23-4.23.02-.02,4.84-4.84.03-.03c5.08-6.17,8.13-14.06,8.13-22.66,0-3.67-.56-7.22-1.59-10.55Z"/>
      <path class="cls-18" d="M33.78,57.51l-.2-.2c-.12-.12-.22-.22-.38-.38-.03-.04-.07-.08-.12-.12-.04-.05-.09-.1-.15-.16-.04-.04-.08-.07-.12-.11-.28-.26-.68-.65-3.95-3.89-.75-.74-1.51-1.48-2.25-2.21-1.04-1.03-2.04-2.08-2.95-3.18l-.02-.02c-.44-.53-.85-1.07-1.23-1.63-2.06-3-3.31-6.54-2.76-11.45,1.15-10.32,15.71-20.98,28.39-9.69.06.05.11.1.17.16l.1.1.06.05,1.31,1.31,1.09,1.1h.01s.01.01.01.01l.07.07,1.5,1.5.11.12,1.75,1.74.56.56,4.18-4.18.39-.38,1.23-1.22,1.07-1.07,1.74-1.75.5-.51,4.37-4.37-.41-.41h0s-3.47-3.47-3.47-3.47l-.12-.13c-.1-.09-.2-.19-.29-.28-.93-.9-1.74-1.67-2.46-2.34s-1.34-1.24-1.89-1.73l-.85-.85C52.54,3.2,44.48,0,35.69,0c-3.66,0-7.19.55-10.52,1.59C14.03,5.03,5.21,13.78,1.68,24.88c-1.09,3.41-1.68,7.05-1.68,10.82,0,5.41,1.21,10.55,3.38,15.15.05.12.11.23.16.35,1.15,2.38,2.56,4.61,4.18,6.65h.01c.31.39.62.77.94,1.15.02.02.05.05.07.08.14.18.27.34.4.5l.02.02.02.03.57.56.1.1.02.03c.39.41.79.81,1.21,1.21l.06.05,8.7,8.71.02-.02,12.58,12.58.8.8,6.33,6.37,15.07,15.07,13.47-13.48.11-.11.04-.04-.17-.17-34.31-33.78Z"/>
    </g>
  </g>
</svg>